<?xml version="1.0" standalone="no"?>
<!DOCTYPE svg PUBLIC "-//W3C//DTD SVG 20010904//EN"
 "http://www.w3.org/TR/2001/REC-SVG-20010904/DTD/svg10.dtd">
<svg version="1.0" xmlns="http://www.w3.org/2000/svg"
 width="700.000000pt" height="700.000000pt" viewBox="0 0 700.000000 700.000000"
 preserveAspectRatio="xMidYMid meet">
<metadata>
Created by potrace 1.11, written by Peter Selinger 2001-2013
</metadata>
<g transform="translate(0.000000,700.000000) scale(0.100000,-0.100000)"
fill="#000000" stroke="none">
<path d="M3215 6989 c-745 -64 -1437 -353 -1995 -835 -551 -475 -938 -1101
-1114 -1799 -73 -291 -101 -529 -101 -860 1 -404 50 -722 171 -1090 254 -772
784 -1445 1476 -1876 447 -278 924 -443 1483 -511 130 -16 600 -16 730 0 451
55 818 163 1195 351 729 364 1312 973 1639 1714 144 325 238 674 283 1052 16
139 16 595 0 730 -61 497 -198 932 -418 1327 -538 964 -1489 1620 -2569 1772
-249 35 -546 45 -780 25z m490 -2488 c204 -42 366 -130 516 -280 151 -152 238
-312 281 -521 26 -124 21 -335 -10 -453 -49 -183 -136 -332 -271 -468 -106
-105 -214 -177 -346 -228 -146 -57 -250 -74 -415 -68 -274 10 -487 103 -681
296 -195 195 -286 407 -296 686 -6 161 12 272 66 410 97 253 323 478 576 576
177 69 397 88 580 50z m-1679 -1278 c39 -181 73 -275 149 -420 197 -378 549
-654 964 -758 608 -152 1258 99 1605 620 115 171 181 331 230 558 l6 27 800 0
800 0 0 -27 c0 -16 -9 -91 -21 -168 -195 -1333 -1225 -2384 -2551 -2604 -185
-31 -312 -41 -508 -41 -196 0 -323 10 -508 41 -1214 201 -2196 1108 -2491
2300 -37 150 -81 404 -81 472 l0 27 800 0 800 0 6 -27z"/>
</g>
</svg>
